<svg width="556" height="68" viewBox="0 0 556 68" fill="none" xmlns="http://www.w3.org/2000/svg">
<path d="M-2.19345e-05 23.04L8.25598 0.640007H11.104L19.328 23.04H16.48L14.432 17.28H4.89598L2.81598 23.04H-2.19345e-05ZM5.69598 15.104H13.632L9.66398 4.03201L5.69598 15.104ZM35.1267 23.424C33.2281 23.424 31.6494 22.944 30.3907 21.984C29.1321 21.024 28.3961 19.7227 28.1827 18.08H30.9347C31.1054 18.912 31.5427 19.6373 32.2467 20.256C32.9721 20.8533 33.9427 21.152 35.1587 21.152C36.2894 21.152 37.1214 20.9173 37.6547 20.448C38.1881 19.9573 38.4547 19.3813 38.4547 18.72C38.4547 17.76 38.1027 17.12 37.3987 16.8C36.7161 16.48 35.7454 16.192 34.4867 15.936C33.6334 15.7653 32.7801 15.52 31.9267 15.2C31.0734 14.88 30.3587 14.432 29.7827 13.856C29.2067 13.2587 28.9187 12.48 28.9187 11.52C28.9187 10.1333 29.4307 9.00267 30.4547 8.12801C31.5001 7.23201 32.9081 6.78401 34.6787 6.78401C36.3641 6.78401 37.7401 7.21067 38.8067 8.06401C39.8947 8.89601 40.5241 10.0907 40.6947 11.648H38.0387C37.9321 10.8373 37.5801 10.208 36.9827 9.76001C36.4067 9.29067 35.6281 9.05601 34.6467 9.05601C33.6867 9.05601 32.9401 9.25867 32.4067 9.66401C31.8947 10.0693 31.6387 10.6027 31.6387 11.264C31.6387 11.904 31.9694 12.4053 32.6307 12.768C33.3134 13.1307 34.2307 13.44 35.3827 13.696C36.3641 13.9093 37.2921 14.176 38.1667 14.496C39.0627 14.7947 39.7881 15.2533 40.3427 15.872C40.9187 16.4693 41.2067 17.344 41.2067 18.496C41.2281 19.9253 40.6841 21.1093 39.5747 22.048C38.4867 22.9653 37.0041 23.424 35.1267 23.424ZM51.2227 23.424C49.7081 23.424 48.3641 23.0827 47.1907 22.4C46.0174 21.696 45.0894 20.7253 44.4067 19.488C43.7454 18.2507 43.4147 16.7893 43.4147 15.104C43.4147 13.44 43.7454 11.9893 44.4067 10.752C45.0681 9.49334 45.9854 8.52267 47.1587 7.84001C48.3534 7.13601 49.7294 6.78401 51.2867 6.78401C52.8227 6.78401 54.1454 7.13601 55.2547 7.84001C56.3854 8.52267 57.2494 9.42934 57.8467 10.56C58.4441 11.6907 58.7427 12.9067 58.7427 14.208C58.7427 14.4427 58.7321 14.6773 58.7107 14.912C58.7107 15.1467 58.7107 15.4133 58.7107 15.712H46.0707C46.1347 16.928 46.4121 17.9413 46.9027 18.752C47.4147 19.5413 48.0441 20.1387 48.7907 20.544C49.5587 20.9493 50.3694 21.152 51.2227 21.152C52.3321 21.152 53.2601 20.896 54.0067 20.384C54.7534 19.872 55.2974 19.1787 55.6387 18.304H58.2947C57.8681 19.776 57.0467 21.0027 55.8307 21.984C54.6361 22.944 53.1001 23.424 51.2227 23.424ZM51.2227 9.05601C49.9427 9.05601 48.8014 9.45068 47.7987 10.24C46.8174 11.008 46.2521 12.1387 46.1027 13.632H56.0867C56.0227 12.2027 55.5321 11.0827 54.6147 10.272C53.6974 9.46134 52.5667 9.05601 51.2227 9.05601ZM61.3455 23.04V7.16801H63.7775L63.9375 10.016C64.4495 9.01334 65.1855 8.22401 66.1455 7.64801C67.1055 7.07201 68.1935 6.78401 69.4095 6.78401C71.2868 6.78401 72.7801 7.36001 73.8895 8.51201C75.0201 9.64267 75.5855 11.392 75.5855 13.76V23.04H72.8975V14.048C72.8975 10.7413 71.5321 9.08801 68.8015 9.08801C67.4361 9.08801 66.2948 9.58934 65.3775 10.592C64.4815 11.5733 64.0335 12.9813 64.0335 14.816V23.04H61.3455ZM80.33 3.64801C79.7966 3.64801 79.3486 3.47734 78.986 3.13601C78.6446 2.77334 78.474 2.32534 78.474 1.79201C78.474 1.28001 78.6446 0.853341 78.986 0.512007C79.3486 0.170674 79.7966 7.62939e-06 80.33 7.62939e-06C80.842 7.62939e-06 81.2793 0.170674 81.642 0.512007C82.0046 0.853341 82.186 1.28001 82.186 1.79201C82.186 2.32534 82.0046 2.77334 81.642 3.13601C81.2793 3.47734 80.842 3.64801 80.33 3.64801ZM78.986 23.04V7.16801H81.674V23.04H78.986ZM92.6262 23.424C91.1329 23.424 89.7889 23.0827 88.5942 22.4C87.3996 21.7173 86.4502 20.7573 85.7462 19.52C85.0636 18.2613 84.7222 16.7893 84.7222 15.104C84.7222 13.4187 85.0742 11.9573 85.7782 10.72C86.4822 9.46134 87.4316 8.49067 88.6262 7.80801C89.8422 7.12534 91.1969 6.78401 92.6902 6.78401C94.1836 6.78401 95.5276 7.12534 96.7222 7.80801C97.9169 8.49067 98.8556 9.46134 99.5382 10.72C100.242 11.9573 100.594 13.4187 100.594 15.104C100.594 16.7893 100.242 18.2613 99.5382 19.52C98.8342 20.7573 97.8742 21.7173 96.6582 22.4C95.4636 23.0827 94.1196 23.424 92.6262 23.424ZM92.6262 21.12C93.5436 21.12 94.3969 20.896 95.1862 20.448C95.9756 20 96.6156 19.328 97.1062 18.432C97.5969 17.536 97.8422 16.4267 97.8422 15.104C97.8422 13.7813 97.5969 12.672 97.1062 11.776C96.6369 10.88 96.0076 10.208 95.2182 9.76001C94.4289 9.31201 93.5862 9.08801 92.6902 9.08801C91.7729 9.08801 90.9196 9.31201 90.1302 9.76001C89.3409 10.208 88.7009 10.88 88.2102 11.776C87.7196 12.672 87.4742 13.7813 87.4742 15.104C87.4742 16.4267 87.7196 17.536 88.2102 18.432C88.7009 19.328 89.3302 20 90.0982 20.448C90.8876 20.896 91.7302 21.12 92.6262 21.12ZM103.372 23.04V7.16801H105.804L106.028 10.208C106.518 9.16267 107.265 8.33067 108.268 7.71201C109.27 7.09334 110.508 6.78401 111.98 6.78401V9.60001H111.244C110.305 9.60001 109.441 9.77067 108.652 10.112C107.862 10.432 107.233 10.9867 106.764 11.776C106.294 12.5653 106.06 13.6533 106.06 15.04V23.04H103.372ZM113.717 14.88V12.608H126.389V14.88H113.717ZM131.211 30.08L135.147 21.504H134.219L127.915 7.16801H130.827L136.075 19.52L141.643 7.16801H144.427L134.027 30.08H131.211ZM151.94 23.424C150.426 23.424 149.082 23.0827 147.908 22.4C146.735 21.696 145.807 20.7253 145.124 19.488C144.463 18.2507 144.132 16.7893 144.132 15.104C144.132 13.44 144.463 11.9893 145.124 10.752C145.786 9.49334 146.703 8.52267 147.876 7.84001C149.071 7.13601 150.447 6.78401 152.004 6.78401C153.54 6.78401 154.863 7.13601 155.972 7.84001C157.103 8.52267 157.967 9.42934 158.564 10.56C159.162 11.6907 159.46 12.9067 159.46 14.208C159.46 14.4427 159.45 14.6773 159.428 14.912C159.428 15.1467 159.428 15.4133 159.428 15.712H146.788C146.852 16.928 147.13 17.9413 147.62 18.752C148.132 19.5413 148.762 20.1387 149.508 20.544C150.276 20.9493 151.087 21.152 151.94 21.152C153.05 21.152 153.978 20.896 154.724 20.384C155.471 19.872 156.015 19.1787 156.356 18.304H159.012C158.586 19.776 157.764 21.0027 156.548 21.984C155.354 22.944 153.818 23.424 151.94 23.424ZM151.94 9.05601C150.66 9.05601 149.519 9.45068 148.516 10.24C147.535 11.008 146.97 12.1387 146.82 13.632H156.804C156.74 12.2027 156.25 11.0827 155.332 10.272C154.415 9.46134 153.284 9.05601 151.94 9.05601ZM167.343 23.424C166.02 23.424 164.922 23.2 164.047 22.752C163.172 22.304 162.522 21.7067 162.095 20.96C161.668 20.2133 161.455 19.4027 161.455 18.528C161.455 16.9067 162.074 15.6587 163.311 14.784C164.548 13.9093 166.234 13.472 168.367 13.472H172.655V13.28C172.655 11.8933 172.292 10.848 171.567 10.144C170.842 9.41867 169.871 9.05601 168.655 9.05601C167.61 9.05601 166.703 9.32267 165.935 9.85601C165.188 10.368 164.719 11.1253 164.527 12.128H161.775C161.882 10.976 162.266 10.0053 162.927 9.21601C163.61 8.42667 164.452 7.82934 165.455 7.42401C166.458 6.99734 167.524 6.78401 168.655 6.78401C170.874 6.78401 172.538 7.38134 173.647 8.57601C174.778 9.74934 175.343 11.3173 175.343 13.28V23.04H172.943L172.783 20.192C172.335 21.088 171.674 21.856 170.799 22.496C169.946 23.1147 168.794 23.424 167.343 23.424ZM167.759 21.152C168.783 21.152 169.658 20.8853 170.383 20.352C171.13 19.8187 171.695 19.1253 172.079 18.272C172.463 17.4187 172.655 16.5227 172.655 15.584V15.552H168.591C167.012 15.552 165.892 15.8293 165.231 16.384C164.591 16.9173 164.271 17.5893 164.271 18.4C164.271 19.232 164.57 19.904 165.167 20.416C165.786 20.9067 166.65 21.152 167.759 21.152ZM178.415 23.04V7.16801H180.847L181.071 10.208C181.562 9.16267 182.309 8.33067 183.311 7.71201C184.314 7.09334 185.551 6.78401 187.023 6.78401V9.60001H186.287C185.349 9.60001 184.485 9.77067 183.695 10.112C182.906 10.432 182.277 10.9867 181.807 11.776C181.338 12.5653 181.103 13.6533 181.103 15.04V23.04H178.415ZM203.789 23.424C202.211 23.424 200.824 23.0613 199.629 22.336C198.456 21.6107 197.539 20.6187 196.877 19.36C196.237 18.1013 195.917 16.672 195.917 15.072C195.917 13.472 196.248 12.0533 196.909 10.816C197.571 9.55734 198.488 8.57601 199.661 7.87201C200.835 7.14667 202.221 6.78401 203.821 6.78401C205.123 6.78401 206.275 7.05067 207.277 7.58401C208.28 8.11734 209.059 8.86401 209.613 9.82401V7.62939e-06H212.301V23.04H209.869L209.613 20.416C209.101 21.184 208.365 21.8773 207.405 22.496C206.445 23.1147 205.24 23.424 203.789 23.424ZM204.077 21.088C205.144 21.088 206.083 20.8427 206.893 20.352C207.725 19.84 208.365 19.136 208.813 18.24C209.283 17.344 209.517 16.2987 209.517 15.104C209.517 13.9093 209.283 12.864 208.813 11.968C208.365 11.072 207.725 10.3787 206.893 9.88801C206.083 9.37601 205.144 9.12001 204.077 9.12001C203.032 9.12001 202.093 9.37601 201.261 9.88801C200.451 10.3787 199.811 11.072 199.341 11.968C198.893 12.864 198.669 13.9093 198.669 15.104C198.669 16.2987 198.893 17.344 199.341 18.24C199.811 19.136 200.451 19.84 201.261 20.352C202.093 20.8427 203.032 21.088 204.077 21.088ZM222.859 23.424C221.344 23.424 220 23.0827 218.827 22.4C217.654 21.696 216.726 20.7253 216.043 19.488C215.382 18.2507 215.051 16.7893 215.051 15.104C215.051 13.44 215.382 11.9893 216.043 10.752C216.704 9.49334 217.622 8.52267 218.795 7.84001C219.99 7.13601 221.366 6.78401 222.923 6.78401C224.459 6.78401 225.782 7.13601 226.891 7.84001C228.022 8.52267 228.886 9.42934 229.483 10.56C230.08 11.6907 230.379 12.9067 230.379 14.208C230.379 14.4427 230.368 14.6773 230.347 14.912C230.347 15.1467 230.347 15.4133 230.347 15.712H217.707C217.771 16.928 218.048 17.9413 218.539 18.752C219.051 19.5413 219.68 20.1387 220.427 20.544C221.195 20.9493 222.006 21.152 222.859 21.152C223.968 21.152 224.896 20.896 225.643 20.384C226.39 19.872 226.934 19.1787 227.275 18.304H229.931C229.504 19.776 228.683 21.0027 227.467 21.984C226.272 22.944 224.736 23.424 222.859 23.424ZM222.859 9.05601C221.579 9.05601 220.438 9.45068 219.435 10.24C218.454 11.008 217.888 12.1387 217.739 13.632H227.723C227.659 12.2027 227.168 11.0827 226.251 10.272C225.334 9.46134 224.203 9.05601 222.859 9.05601ZM239.062 23.424C237.163 23.424 235.584 22.944 234.326 21.984C233.067 21.024 232.331 19.7227 232.118 18.08H234.87C235.04 18.912 235.478 19.6373 236.182 20.256C236.907 20.8533 237.878 21.152 239.094 21.152C240.224 21.152 241.056 20.9173 241.59 20.448C242.123 19.9573 242.39 19.3813 242.39 18.72C242.39 17.76 242.038 17.12 241.334 16.8C240.651 16.48 239.68 16.192 238.422 15.936C237.568 15.7653 236.715 15.52 235.862 15.2C235.008 14.88 234.294 14.432 233.718 13.856C233.142 13.2587 232.854 12.48 232.854 11.52C232.854 10.1333 233.366 9.00267 234.39 8.12801C235.435 7.23201 236.843 6.78401 238.614 6.78401C240.299 6.78401 241.675 7.21067 242.742 8.06401C243.83 8.89601 244.459 10.0907 244.63 11.648H241.974C241.867 10.8373 241.515 10.208 240.918 9.76001C240.342 9.29067 239.563 9.05601 238.582 9.05601C237.622 9.05601 236.875 9.25867 236.342 9.66401C235.83 10.0693 235.574 10.6027 235.574 11.264C235.574 11.904 235.904 12.4053 236.566 12.768C237.248 13.1307 238.166 13.44 239.318 13.696C240.299 13.9093 241.227 14.176 242.102 14.496C242.998 14.7947 243.723 15.2533 244.278 15.872C244.854 16.4693 245.142 17.344 245.142 18.496C245.163 19.9253 244.619 21.1093 243.51 22.048C242.422 22.9653 240.939 23.424 239.062 23.424ZM249.654 3.64801C249.12 3.64801 248.672 3.47734 248.31 3.13601C247.968 2.77334 247.798 2.32534 247.798 1.79201C247.798 1.28001 247.968 0.853341 248.31 0.512007C248.672 0.170674 249.12 7.62939e-06 249.654 7.62939e-06C250.166 7.62939e-06 250.603 0.170674 250.966 0.512007C251.328 0.853341 251.51 1.28001 251.51 1.79201C251.51 2.32534 251.328 2.77334 250.966 3.13601C250.603 3.47734 250.166 3.64801 249.654 3.64801ZM248.31 23.04V7.16801H250.998V23.04H248.31ZM260.99 18.048C260.094 18.048 259.273 17.9307 258.526 17.696L256.926 19.2C257.161 19.3707 257.449 19.52 257.79 19.648C258.153 19.7547 258.665 19.8613 259.326 19.968C259.987 20.0533 260.915 20.1493 262.11 20.256C264.243 20.4053 265.769 20.896 266.686 21.728C267.603 22.56 268.062 23.648 268.062 24.992C268.062 25.9093 267.806 26.784 267.294 27.616C266.803 28.448 266.035 29.1307 264.99 29.664C263.966 30.1973 262.643 30.464 261.022 30.464C259.593 30.464 258.323 30.272 257.214 29.888C256.105 29.5253 255.241 28.96 254.622 28.192C254.003 27.4453 253.694 26.496 253.694 25.344C253.694 24.7467 253.854 24.096 254.174 23.392C254.494 22.7093 255.091 22.0587 255.966 21.44C255.497 21.248 255.091 21.0453 254.75 20.832C254.43 20.5973 254.131 20.3413 253.854 20.064V19.328L256.574 16.64C255.315 15.5733 254.686 14.1653 254.686 12.416C254.686 11.3707 254.931 10.4213 255.422 9.56801C255.913 8.71467 256.627 8.04267 257.566 7.55201C258.505 7.04001 259.646 6.78401 260.99 6.78401C261.907 6.78401 262.739 6.91201 263.486 7.16801H269.342V9.18401L266.366 9.31201C266.985 10.208 267.294 11.2427 267.294 12.416C267.294 13.4613 267.038 14.4107 266.526 15.264C266.035 16.1173 265.321 16.8 264.382 17.312C263.465 17.8027 262.334 18.048 260.99 18.048ZM260.99 15.84C262.121 15.84 263.017 15.552 263.678 14.976C264.361 14.3787 264.702 13.5253 264.702 12.416C264.702 11.328 264.361 10.496 263.678 9.92001C263.017 9.32267 262.121 9.02401 260.99 9.02401C259.838 9.02401 258.921 9.32267 258.238 9.92001C257.577 10.496 257.246 11.328 257.246 12.416C257.246 13.5253 257.577 14.3787 258.238 14.976C258.921 15.552 259.838 15.84 260.99 15.84ZM256.318 25.088C256.318 26.1547 256.766 26.944 257.662 27.456C258.558 27.9893 259.678 28.256 261.022 28.256C262.345 28.256 263.401 27.968 264.19 27.392C265.001 26.816 265.406 26.048 265.406 25.088C265.406 24.4053 265.129 23.808 264.574 23.296C264.019 22.8053 262.995 22.5173 261.502 22.432C260.329 22.3467 259.315 22.24 258.462 22.112C257.587 22.5813 257.011 23.0827 256.734 23.616C256.457 24.1707 256.318 24.6613 256.318 25.088ZM271.414 23.04V7.16801H273.846L274.006 10.016C274.518 9.01334 275.254 8.22401 276.214 7.64801C277.174 7.07201 278.262 6.78401 279.478 6.78401C281.356 6.78401 282.849 7.36001 283.958 8.51201C285.089 9.64267 285.654 11.392 285.654 13.76V23.04H282.966V14.048C282.966 10.7413 281.601 9.08801 278.87 9.08801C277.505 9.08801 276.364 9.58934 275.446 10.592C274.55 11.5733 274.102 12.9813 274.102 14.816V23.04H271.414ZM302.355 23.424C300.457 23.424 298.878 22.944 297.619 21.984C296.361 21.024 295.625 19.7227 295.411 18.08H298.163C298.334 18.912 298.771 19.6373 299.475 20.256C300.201 20.8533 301.171 21.152 302.387 21.152C303.518 21.152 304.35 20.9173 304.883 20.448C305.417 19.9573 305.683 19.3813 305.683 18.72C305.683 17.76 305.331 17.12 304.627 16.8C303.945 16.48 302.974 16.192 301.715 15.936C300.862 15.7653 300.009 15.52 299.155 15.2C298.302 14.88 297.587 14.432 297.011 13.856C296.435 13.2587 296.147 12.48 296.147 11.52C296.147 10.1333 296.659 9.00267 297.683 8.12801C298.729 7.23201 300.137 6.78401 301.907 6.78401C303.593 6.78401 304.969 7.21067 306.035 8.06401C307.123 8.89601 307.753 10.0907 307.923 11.648H305.267C305.161 10.8373 304.809 10.208 304.211 9.76001C303.635 9.29067 302.857 9.05601 301.875 9.05601C300.915 9.05601 300.169 9.25867 299.635 9.66401C299.123 10.0693 298.867 10.6027 298.867 11.264C298.867 11.904 299.198 12.4053 299.859 12.768C300.542 13.1307 301.459 13.44 302.611 13.696C303.593 13.9093 304.521 14.176 305.395 14.496C306.291 14.7947 307.017 15.2533 307.571 15.872C308.147 16.4693 308.435 17.344 308.435 18.496C308.457 19.9253 307.913 21.1093 306.803 22.048C305.715 22.9653 304.233 23.424 302.355 23.424ZM316.869 23.04C315.418 23.04 314.277 22.688 313.445 21.984C312.613 21.28 312.197 20.0107 312.197 18.176V9.44001H309.445V7.16801H312.197L312.549 3.36001H314.885V7.16801H319.557V9.44001H314.885V18.176C314.885 19.1787 315.087 19.8613 315.493 20.224C315.898 20.5653 316.613 20.736 317.637 20.736H319.301V23.04H316.869ZM335.9 7.16801V23.04H333.468L333.308 20.192C332.796 21.1947 332.06 21.984 331.1 22.56C330.14 23.136 329.052 23.424 327.836 23.424C325.958 23.424 324.454 22.8587 323.324 21.728C322.214 20.576 321.66 18.816 321.66 16.448V7.16801H324.348V16.16C324.348 19.4667 325.713 21.12 328.444 21.12C329.809 21.12 330.94 20.6293 331.836 19.648C332.753 18.6453 333.212 17.2267 333.212 15.392V7.16801H335.9ZM346.564 23.424C344.986 23.424 343.599 23.0613 342.404 22.336C341.231 21.6107 340.314 20.6187 339.652 19.36C339.012 18.1013 338.692 16.672 338.692 15.072C338.692 13.472 339.023 12.0533 339.684 10.816C340.346 9.55734 341.263 8.57601 342.436 7.87201C343.61 7.14667 344.996 6.78401 346.596 6.78401C347.898 6.78401 349.05 7.05067 350.052 7.58401C351.055 8.11734 351.834 8.86401 352.388 9.82401V7.62939e-06H355.076V23.04H352.644L352.388 20.416C351.876 21.184 351.14 21.8773 350.18 22.496C349.22 23.1147 348.015 23.424 346.564 23.424ZM346.852 21.088C347.919 21.088 348.858 20.8427 349.668 20.352C350.5 19.84 351.14 19.136 351.588 18.24C352.058 17.344 352.292 16.2987 352.292 15.104C352.292 13.9093 352.058 12.864 351.588 11.968C351.14 11.072 350.5 10.3787 349.668 9.88801C348.858 9.37601 347.919 9.12001 346.852 9.12001C345.807 9.12001 344.868 9.37601 344.036 9.88801C343.226 10.3787 342.586 11.072 342.116 11.968C341.668 12.864 341.444 13.9093 341.444 15.104C341.444 16.2987 341.668 17.344 342.116 18.24C342.586 19.136 343.226 19.84 344.036 20.352C344.868 20.8427 345.807 21.088 346.852 21.088ZM365.634 23.424C364.119 23.424 362.775 23.0827 361.602 22.4C360.429 21.696 359.501 20.7253 358.818 19.488C358.157 18.2507 357.826 16.7893 357.826 15.104C357.826 13.44 358.157 11.9893 358.818 10.752C359.479 9.49334 360.397 8.52267 361.57 7.84001C362.765 7.13601 364.141 6.78401 365.698 6.78401C367.234 6.78401 368.557 7.13601 369.666 7.84001C370.797 8.52267 371.661 9.42934 372.258 10.56C372.855 11.6907 373.154 12.9067 373.154 14.208C373.154 14.4427 373.143 14.6773 373.122 14.912C373.122 15.1467 373.122 15.4133 373.122 15.712H360.482C360.546 16.928 360.823 17.9413 361.314 18.752C361.826 19.5413 362.455 20.1387 363.202 20.544C363.97 20.9493 364.781 21.152 365.634 21.152C366.743 21.152 367.671 20.896 368.418 20.384C369.165 19.872 369.709 19.1787 370.05 18.304H372.706C372.279 19.776 371.458 21.0027 370.242 21.984C369.047 22.944 367.511 23.424 365.634 23.424ZM365.634 9.05601C364.354 9.05601 363.213 9.45068 362.21 10.24C361.229 11.008 360.663 12.1387 360.514 13.632H370.498C370.434 12.2027 369.943 11.0827 369.026 10.272C368.109 9.46134 366.978 9.05601 365.634 9.05601ZM375.757 23.04V7.16801H378.189L378.349 10.016C378.861 9.01334 379.597 8.22401 380.557 7.64801C381.517 7.07201 382.605 6.78401 383.821 6.78401C385.698 6.78401 387.191 7.36001 388.301 8.51201C389.431 9.64267 389.997 11.392 389.997 13.76V23.04H387.309V14.048C387.309 10.7413 385.943 9.08801 383.213 9.08801C381.847 9.08801 380.706 9.58934 379.789 10.592C378.893 11.5733 378.445 12.9813 378.445 14.816V23.04H375.757ZM399.381 23.04C397.931 23.04 396.789 22.688 395.957 21.984C395.125 21.28 394.709 20.0107 394.709 18.176V9.44001H391.957V7.16801H394.709L395.061 3.36001H397.397V7.16801H402.069V9.44001H397.397V18.176C397.397 19.1787 397.6 19.8613 398.005 20.224C398.411 20.5653 399.125 20.736 400.149 20.736H401.813V23.04H399.381ZM415.233 23.04L410.593 7.16801H413.281L416.641 19.616L420.353 7.16801H423.393L427.137 19.616L430.465 7.16801H433.185L428.545 23.04H425.793L421.889 9.95201L417.985 23.04H415.233ZM435.198 23.04V7.62939e-06H437.886V9.88801C438.419 8.90667 439.177 8.14934 440.158 7.61601C441.139 7.06134 442.206 6.78401 443.358 6.78401C445.193 6.78401 446.665 7.36001 447.774 8.51201C448.883 9.64267 449.438 11.392 449.438 13.76V23.04H446.782V14.048C446.782 10.7413 445.449 9.08801 442.782 9.08801C441.395 9.08801 440.233 9.58934 439.294 10.592C438.355 11.5733 437.886 12.9813 437.886 14.816V23.04H435.198ZM459.782 23.424C458.289 23.424 456.945 23.0827 455.75 22.4C454.556 21.7173 453.606 20.7573 452.902 19.52C452.22 18.2613 451.878 16.7893 451.878 15.104C451.878 13.4187 452.23 11.9573 452.934 10.72C453.638 9.46134 454.588 8.49067 455.782 7.80801C456.998 7.12534 458.353 6.78401 459.846 6.78401C461.34 6.78401 462.684 7.12534 463.878 7.80801C465.073 8.49067 466.012 9.46134 466.694 10.72C467.398 11.9573 467.75 13.4187 467.75 15.104C467.75 16.7893 467.398 18.2613 466.694 19.52C465.99 20.7573 465.03 21.7173 463.814 22.4C462.62 23.0827 461.276 23.424 459.782 23.424ZM459.782 21.12C460.7 21.12 461.553 20.896 462.342 20.448C463.132 20 463.772 19.328 464.262 18.432C464.753 17.536 464.998 16.4267 464.998 15.104C464.998 13.7813 464.753 12.672 464.262 11.776C463.793 10.88 463.164 10.208 462.374 9.76001C461.585 9.31201 460.742 9.08801 459.846 9.08801C458.929 9.08801 458.076 9.31201 457.286 9.76001C456.497 10.208 455.857 10.88 455.366 11.776C454.876 12.672 454.63 13.7813 454.63 15.104C454.63 16.4267 454.876 17.536 455.366 18.432C455.857 19.328 456.486 20 457.254 20.448C458.044 20.896 458.886 21.12 459.782 21.12ZM484.309 23.04C482.858 23.04 481.717 22.688 480.885 21.984C480.053 21.28 479.637 20.0107 479.637 18.176V9.44001H476.885V7.16801H479.637L479.989 3.36001H482.325V7.16801H486.997V9.44001H482.325V18.176C482.325 19.1787 482.527 19.8613 482.933 20.224C483.338 20.5653 484.053 20.736 485.077 20.736H486.741V23.04H484.309ZM489.452 23.04V7.16801H491.884L492.108 10.208C492.598 9.16267 493.345 8.33067 494.348 7.71201C495.35 7.09334 496.588 6.78401 498.06 6.78401V9.60001H497.324C496.385 9.60001 495.521 9.77067 494.732 10.112C493.942 10.432 493.313 10.9867 492.844 11.776C492.374 12.5653 492.14 13.6533 492.14 15.04V23.04H489.452ZM501.845 30.08L505.781 21.504H504.853L498.549 7.16801H501.461L506.709 19.52L512.277 7.16801H515.061L504.661 30.08H501.845ZM518.57 3.64801C518.037 3.64801 517.589 3.47734 517.226 3.13601C516.885 2.77334 516.714 2.32534 516.714 1.79201C516.714 1.28001 516.885 0.853341 517.226 0.512007C517.589 0.170674 518.037 7.62939e-06 518.57 7.62939e-06C519.082 7.62939e-06 519.519 0.170674 519.882 0.512007C520.245 0.853341 520.426 1.28001 520.426 1.79201C520.426 2.32534 520.245 2.77334 519.882 3.13601C519.519 3.47734 519.082 3.64801 518.57 3.64801ZM517.226 23.04V7.16801H519.914V23.04H517.226ZM523.634 23.04V7.16801H526.066L526.226 10.016C526.738 9.01334 527.474 8.22401 528.434 7.64801C529.394 7.07201 530.482 6.78401 531.698 6.78401C533.576 6.78401 535.069 7.36001 536.178 8.51201C537.309 9.64267 537.874 11.392 537.874 13.76V23.04H535.186V14.048C535.186 10.7413 533.821 9.08801 531.09 9.08801C529.725 9.08801 528.584 9.58934 527.666 10.592C526.77 11.5733 526.322 12.9813 526.322 14.816V23.04H523.634ZM547.259 18.048C546.363 18.048 545.541 17.9307 544.795 17.696L543.195 19.2C543.429 19.3707 543.717 19.52 544.059 19.648C544.421 19.7547 544.933 19.8613 545.595 19.968C546.256 20.0533 547.184 20.1493 548.379 20.256C550.512 20.4053 552.037 20.896 552.955 21.728C553.872 22.56 554.331 23.648 554.331 24.992C554.331 25.9093 554.075 26.784 553.563 27.616C553.072 28.448 552.304 29.1307 551.259 29.664C550.235 30.1973 548.912 30.464 547.291 30.464C545.861 30.464 544.592 30.272 543.483 29.888C542.373 29.5253 541.509 28.96 540.891 28.192C540.272 27.4453 539.963 26.496 539.963 25.344C539.963 24.7467 540.123 24.096 540.443 23.392C540.763 22.7093 541.36 22.0587 542.235 21.44C541.765 21.248 541.36 21.0453 541.019 20.832C540.699 20.5973 540.4 20.3413 540.123 20.064V19.328L542.843 16.64C541.584 15.5733 540.955 14.1653 540.955 12.416C540.955 11.3707 541.2 10.4213 541.691 9.56801C542.181 8.71467 542.896 8.04267 543.835 7.55201C544.773 7.04001 545.915 6.78401 547.259 6.78401C548.176 6.78401 549.008 6.91201 549.755 7.16801H555.611V9.18401L552.635 9.31201C553.253 10.208 553.563 11.2427 553.563 12.416C553.563 13.4613 553.307 14.4107 552.795 15.264C552.304 16.1173 551.589 16.8 550.651 17.312C549.733 17.8027 548.603 18.048 547.259 18.048ZM547.259 15.84C548.389 15.84 549.285 15.552 549.947 14.976C550.629 14.3787 550.971 13.5253 550.971 12.416C550.971 11.328 550.629 10.496 549.947 9.92001C549.285 9.32267 548.389 9.02401 547.259 9.02401C546.107 9.02401 545.189 9.32267 544.507 9.92001C543.845 10.496 543.515 11.328 543.515 12.416C543.515 13.5253 543.845 14.3787 544.507 14.976C545.189 15.552 546.107 15.84 547.259 15.84ZM542.587 25.088C542.587 26.1547 543.035 26.944 543.931 27.456C544.827 27.9893 545.947 28.256 547.291 28.256C548.613 28.256 549.669 27.968 550.459 27.392C551.269 26.816 551.675 26.048 551.675 25.088C551.675 24.4053 551.397 23.808 550.843 23.296C550.288 22.8053 549.264 22.5173 547.771 22.432C546.597 22.3467 545.584 22.24 544.731 22.112C543.856 22.5813 543.28 23.0827 543.003 23.616C542.725 24.1707 542.587 24.6613 542.587 25.088ZM7.51998 60.04C6.06931 60.04 4.92798 59.688 4.09598 58.984C3.26398 58.28 2.84798 57.0107 2.84798 55.176V46.44H0.095978V44.168H2.84798L3.19998 40.36H5.53598V44.168H10.208V46.44H5.53598V55.176C5.53598 56.1787 5.73865 56.8613 6.14398 57.224C6.54931 57.5653 7.26398 57.736 8.28798 57.736H9.95198V60.04H7.51998ZM19.4575 60.424C17.9641 60.424 16.6201 60.0827 15.4255 59.4C14.2308 58.7173 13.2815 57.7573 12.5775 56.52C11.8948 55.2613 11.5535 53.7893 11.5535 52.104C11.5535 50.4187 11.9055 48.9573 12.6095 47.72C13.3135 46.4613 14.2628 45.4907 15.4575 44.808C16.6735 44.1253 18.0281 43.784 19.5215 43.784C21.0148 43.784 22.3588 44.1253 23.5535 44.808C24.7481 45.4907 25.6868 46.4613 26.3695 47.72C27.0735 48.9573 27.4255 50.4187 27.4255 52.104C27.4255 53.7893 27.0735 55.2613 26.3695 56.52C25.6655 57.7573 24.7055 58.7173 23.4895 59.4C22.2948 60.0827 20.9508 60.424 19.4575 60.424ZM19.4575 58.12C20.3748 58.12 21.2281 57.896 22.0175 57.448C22.8068 57 23.4468 56.328 23.9375 55.432C24.4281 54.536 24.6735 53.4267 24.6735 52.104C24.6735 50.7813 24.4281 49.672 23.9375 48.776C23.4681 47.88 22.8388 47.208 22.0495 46.76C21.2601 46.312 20.4175 46.088 19.5215 46.088C18.6041 46.088 17.7508 46.312 16.9615 46.76C16.1721 47.208 15.5321 47.88 15.0415 48.776C14.5508 49.672 14.3055 50.7813 14.3055 52.104C14.3055 53.4267 14.5508 54.536 15.0415 55.432C15.5321 56.328 16.1615 57 16.9295 57.448C17.7188 57.896 18.5615 58.12 19.4575 58.12ZM43.7917 60.424C41.8931 60.424 40.3144 59.944 39.0557 58.984C37.7971 58.024 37.0611 56.7227 36.8477 55.08H39.5997C39.7704 55.912 40.2077 56.6373 40.9117 57.256C41.6371 57.8533 42.6077 58.152 43.8237 58.152C44.9544 58.152 45.7864 57.9173 46.3197 57.448C46.8531 56.9573 47.1197 56.3813 47.1197 55.72C47.1197 54.76 46.7677 54.12 46.0637 53.8C45.3811 53.48 44.4104 53.192 43.1517 52.936C42.2984 52.7653 41.4451 52.52 40.5917 52.2C39.7384 51.88 39.0237 51.432 38.4477 50.856C37.8717 50.2587 37.5837 49.48 37.5837 48.52C37.5837 47.1333 38.0957 46.0027 39.1197 45.128C40.1651 44.232 41.5731 43.784 43.3437 43.784C45.0291 43.784 46.4051 44.2107 47.4717 45.064C48.5597 45.896 49.1891 47.0907 49.3597 48.648H46.7037C46.5971 47.8373 46.2451 47.208 45.6477 46.76C45.0717 46.2907 44.2931 46.056 43.3117 46.056C42.3517 46.056 41.6051 46.2587 41.0717 46.664C40.5597 47.0693 40.3037 47.6027 40.3037 48.264C40.3037 48.904 40.6344 49.4053 41.2957 49.768C41.9784 50.1307 42.8957 50.44 44.0477 50.696C45.0291 50.9093 45.9571 51.176 46.8317 51.496C47.7277 51.7947 48.4531 52.2533 49.0077 52.872C49.5837 53.4693 49.8717 54.344 49.8717 55.496C49.8931 56.9253 49.3491 58.1093 48.2397 59.048C47.1517 59.9653 45.6691 60.424 43.7917 60.424ZM52.7517 67.08V44.168H55.1837L55.4397 46.792C55.9517 46.024 56.6771 45.3307 57.6157 44.712C58.5757 44.0933 59.7917 43.784 61.2637 43.784C62.8424 43.784 64.2184 44.1467 65.3917 44.872C66.5651 45.5973 67.4717 46.5893 68.1117 47.848C68.7731 49.1067 69.1037 50.536 69.1037 52.136C69.1037 53.736 68.7731 55.1653 68.1117 56.424C67.4717 57.6613 66.5544 58.6427 65.3597 59.368C64.1864 60.072 62.8104 60.424 61.2317 60.424C59.9304 60.424 58.7677 60.1573 57.7437 59.624C56.7411 59.0907 55.9731 58.344 55.4397 57.384V67.08H52.7517ZM60.9437 58.088C62.0104 58.088 62.9491 57.8427 63.7597 57.352C64.5704 56.84 65.2104 56.136 65.6797 55.24C66.1491 54.344 66.3837 53.2987 66.3837 52.104C66.3837 50.9093 66.1491 49.864 65.6797 48.968C65.2104 48.072 64.5704 47.3787 63.7597 46.888C62.9491 46.376 62.0104 46.12 60.9437 46.12C59.8771 46.12 58.9384 46.376 58.1277 46.888C57.3171 47.3787 56.6771 48.072 56.2077 48.968C55.7384 49.864 55.5037 50.9093 55.5037 52.104C55.5037 53.2987 55.7384 54.344 56.2077 55.24C56.6771 56.136 57.3171 56.84 58.1277 57.352C58.9384 57.8427 59.8771 58.088 60.9437 58.088ZM79.0215 60.424C77.5068 60.424 76.1628 60.0827 74.9895 59.4C73.8161 58.696 72.8881 57.7253 72.2055 56.488C71.5441 55.2507 71.2135 53.7893 71.2135 52.104C71.2135 50.44 71.5441 48.9893 72.2055 47.752C72.8668 46.4933 73.7841 45.5227 74.9575 44.84C76.1521 44.136 77.5281 43.784 79.0855 43.784C80.6215 43.784 81.9441 44.136 83.0535 44.84C84.1841 45.5227 85.0481 46.4293 85.6455 47.56C86.2428 48.6907 86.5415 49.9067 86.5415 51.208C86.5415 51.4427 86.5308 51.6773 86.5095 51.912C86.5095 52.1467 86.5095 52.4133 86.5095 52.712H73.8695C73.9335 53.928 74.2108 54.9413 74.7015 55.752C75.2135 56.5413 75.8428 57.1387 76.5895 57.544C77.3575 57.9493 78.1681 58.152 79.0215 58.152C80.1308 58.152 81.0588 57.896 81.8055 57.384C82.5521 56.872 83.0961 56.1787 83.4375 55.304H86.0935C85.6668 56.776 84.8455 58.0027 83.6295 58.984C82.4348 59.944 80.8988 60.424 79.0215 60.424ZM79.0215 46.056C77.7415 46.056 76.6001 46.4507 75.5975 47.24C74.6161 48.008 74.0508 49.1387 73.9015 50.632H83.8855C83.8215 49.2027 83.3308 48.0827 82.4135 47.272C81.4961 46.4613 80.3655 46.056 79.0215 46.056ZM96.4402 60.424C94.9256 60.424 93.5602 60.0827 92.3442 59.4C91.1496 58.696 90.2002 57.7253 89.4962 56.488C88.8136 55.2293 88.4722 53.768 88.4722 52.104C88.4722 50.44 88.8136 48.9893 89.4962 47.752C90.2002 46.4933 91.1496 45.5227 92.3442 44.84C93.5602 44.136 94.9256 43.784 96.4402 43.784C98.3176 43.784 99.8962 44.2747 101.176 45.256C102.478 46.2373 103.299 47.5493 103.64 49.192H100.888C100.675 48.2107 100.152 47.4533 99.3202 46.92C98.4882 46.3653 97.5176 46.088 96.4082 46.088C95.5122 46.088 94.6696 46.312 93.8802 46.76C93.0909 47.208 92.4509 47.88 91.9602 48.776C91.4696 49.672 91.2242 50.7813 91.2242 52.104C91.2242 53.4267 91.4696 54.536 91.9602 55.432C92.4509 56.328 93.0909 57.0107 93.8802 57.48C94.6696 57.928 95.5122 58.152 96.4082 58.152C97.5176 58.152 98.4882 57.8853 99.3202 57.352C100.152 56.7973 100.675 56.0187 100.888 55.016H103.64C103.32 56.616 102.51 57.9173 101.208 58.92C99.9069 59.9227 98.3176 60.424 96.4402 60.424ZM108.066 40.648C107.533 40.648 107.085 40.4773 106.722 40.136C106.381 39.7733 106.21 39.3253 106.21 38.792C106.21 38.28 106.381 37.8533 106.722 37.512C107.085 37.1707 107.533 37 108.066 37C108.578 37 109.016 37.1707 109.378 37.512C109.741 37.8533 109.922 38.28 109.922 38.792C109.922 39.3253 109.741 39.7733 109.378 40.136C109.016 40.4773 108.578 40.648 108.066 40.648ZM106.722 60.04V44.168H109.41V60.04H106.722ZM118.41 60.424C117.088 60.424 115.989 60.2 115.114 59.752C114.24 59.304 113.589 58.7067 113.162 57.96C112.736 57.2133 112.522 56.4027 112.522 55.528C112.522 53.9067 113.141 52.6587 114.378 51.784C115.616 50.9093 117.301 50.472 119.434 50.472H123.722V50.28C123.722 48.8933 123.36 47.848 122.634 47.144C121.909 46.4187 120.938 46.056 119.722 46.056C118.677 46.056 117.77 46.3227 117.002 46.856C116.256 47.368 115.786 48.1253 115.594 49.128H112.842C112.949 47.976 113.333 47.0053 113.994 46.216C114.677 45.4267 115.52 44.8293 116.522 44.424C117.525 43.9973 118.592 43.784 119.722 43.784C121.941 43.784 123.605 44.3813 124.714 45.576C125.845 46.7493 126.41 48.3173 126.41 50.28V60.04H124.01L123.85 57.192C123.402 58.088 122.741 58.856 121.866 59.496C121.013 60.1147 119.861 60.424 118.41 60.424ZM118.826 58.152C119.85 58.152 120.725 57.8853 121.45 57.352C122.197 56.8187 122.762 56.1253 123.146 55.272C123.53 54.4187 123.722 53.5227 123.722 52.584V52.552H119.658C118.08 52.552 116.96 52.8293 116.298 53.384C115.658 53.9173 115.338 54.5893 115.338 55.4C115.338 56.232 115.637 56.904 116.234 57.416C116.853 57.9067 117.717 58.152 118.826 58.152ZM129.483 60.04V37H132.171V60.04H129.483ZM137.249 40.648C136.715 40.648 136.267 40.4773 135.905 40.136C135.563 39.7733 135.393 39.3253 135.393 38.792C135.393 38.28 135.563 37.8533 135.905 37.512C136.267 37.1707 136.715 37 137.249 37C137.761 37 138.198 37.1707 138.561 37.512C138.923 37.8533 139.105 38.28 139.105 38.792C139.105 39.3253 138.923 39.7733 138.561 40.136C138.198 40.4773 137.761 40.648 137.249 40.648ZM135.905 60.04V44.168H138.593V60.04H135.905ZM141.225 60.04V57.832L150.057 46.408H141.385V44.168H153.065V46.376L144.233 57.8H153.225V60.04H141.225ZM162.958 60.424C161.443 60.424 160.099 60.0827 158.926 59.4C157.752 58.696 156.824 57.7253 156.142 56.488C155.48 55.2507 155.15 53.7893 155.15 52.104C155.15 50.44 155.48 48.9893 156.142 47.752C156.803 46.4933 157.72 45.5227 158.894 44.84C160.088 44.136 161.464 43.784 163.022 43.784C164.558 43.784 165.88 44.136 166.99 44.84C168.12 45.5227 168.984 46.4293 169.582 47.56C170.179 48.6907 170.478 49.9067 170.478 51.208C170.478 51.4427 170.467 51.6773 170.446 51.912C170.446 52.1467 170.446 52.4133 170.446 52.712H157.806C157.87 53.928 158.147 54.9413 158.638 55.752C159.15 56.5413 159.779 57.1387 160.526 57.544C161.294 57.9493 162.104 58.152 162.958 58.152C164.067 58.152 164.995 57.896 165.742 57.384C166.488 56.872 167.032 56.1787 167.374 55.304H170.03C169.603 56.776 168.782 58.0027 167.566 58.984C166.371 59.944 164.835 60.424 162.958 60.424ZM162.958 46.056C161.678 46.056 160.536 46.4507 159.534 47.24C158.552 48.008 157.987 49.1387 157.838 50.632H167.822C167.758 49.2027 167.267 48.0827 166.35 47.272C165.432 46.4613 164.302 46.056 162.958 46.056ZM182.221 40.648C181.688 40.648 181.24 40.4773 180.877 40.136C180.536 39.7733 180.365 39.3253 180.365 38.792C180.365 38.28 180.536 37.8533 180.877 37.512C181.24 37.1707 181.688 37 182.221 37C182.733 37 183.171 37.1707 183.533 37.512C183.896 37.8533 184.077 38.28 184.077 38.792C184.077 39.3253 183.896 39.7733 183.533 40.136C183.171 40.4773 182.733 40.648 182.221 40.648ZM180.877 60.04V44.168H183.565V60.04H180.877ZM187.285 60.04V44.168H189.717L189.877 47.016C190.389 46.0133 191.125 45.224 192.085 44.648C193.045 44.072 194.133 43.784 195.349 43.784C197.227 43.784 198.72 44.36 199.829 45.512C200.96 46.6427 201.525 48.392 201.525 50.76V60.04H198.837V51.048C198.837 47.7413 197.472 46.088 194.741 46.088C193.376 46.088 192.235 46.5893 191.317 47.592C190.421 48.5733 189.973 49.9813 189.973 51.816V60.04H187.285ZM219.283 60.424C217.853 60.424 216.563 60.168 215.411 59.656C214.259 59.1227 213.331 58.3333 212.627 57.288C211.944 56.2427 211.581 54.9413 211.539 53.384H214.259C214.28 54.664 214.728 55.7733 215.603 56.712C216.477 57.6293 217.704 58.088 219.283 58.088C220.861 58.088 222.045 57.6507 222.835 56.776C223.645 55.9013 224.051 54.8453 224.051 53.608C224.051 52.5627 223.795 51.7093 223.283 51.048C222.792 50.3867 222.12 49.896 221.267 49.576C220.435 49.256 219.517 49.096 218.515 49.096H216.851V46.824H218.515C219.965 46.824 221.096 46.4933 221.907 45.832C222.739 45.1707 223.155 44.2427 223.155 43.048C223.155 42.0453 222.824 41.224 222.163 40.584C221.523 39.9227 220.563 39.592 219.283 39.592C218.045 39.592 217.053 39.9653 216.307 40.712C215.56 41.4373 215.144 42.3547 215.059 43.464H212.339C212.403 42.248 212.723 41.1707 213.299 40.232C213.896 39.2933 214.707 38.568 215.731 38.056C216.755 37.5227 217.939 37.256 219.283 37.256C220.733 37.256 221.939 37.512 222.899 38.024C223.88 38.536 224.616 39.2187 225.107 40.072C225.619 40.9253 225.875 41.864 225.875 42.888C225.875 44.0187 225.565 45.0533 224.947 45.992C224.328 46.9093 223.4 47.528 222.163 47.848C223.485 48.1253 224.584 48.7547 225.459 49.736C226.333 50.7173 226.771 52.008 226.771 53.608C226.771 54.8453 226.483 55.9867 225.907 57.032C225.352 58.056 224.52 58.8773 223.411 59.496C222.301 60.1147 220.925 60.424 219.283 60.424ZM230.159 60.04V37.64H237.039C240.986 37.64 243.887 38.6427 245.743 40.648C247.621 42.6533 248.559 45.4053 248.559 48.904C248.559 52.3387 247.621 55.0587 245.743 57.064C243.887 59.048 240.986 60.04 237.039 60.04H230.159ZM232.847 57.8H236.975C239.151 57.8 240.879 57.448 242.159 56.744C243.461 56.0187 244.389 54.9947 244.943 53.672C245.498 52.328 245.775 50.7387 245.775 48.904C245.775 47.0267 245.498 45.416 244.943 44.072C244.389 42.728 243.461 41.6933 242.159 40.968C240.879 40.2427 239.151 39.88 236.975 39.88H232.847V57.8ZM258.829 60.04V44.168H261.261L261.453 46.472C261.965 45.6187 262.648 44.9573 263.501 44.488C264.355 44.0187 265.315 43.784 266.381 43.784C267.64 43.784 268.717 44.04 269.613 44.552C270.531 45.064 271.235 45.8427 271.725 46.888C272.28 45.928 273.037 45.1707 273.997 44.616C274.979 44.0613 276.035 43.784 277.165 43.784C279.064 43.784 280.579 44.36 281.709 45.512C282.84 46.6427 283.405 48.392 283.405 50.76V60.04H280.749V51.048C280.749 49.4053 280.419 48.168 279.757 47.336C279.096 46.504 278.147 46.088 276.909 46.088C275.629 46.088 274.563 46.5893 273.709 47.592C272.877 48.5733 272.461 49.9813 272.461 51.816V60.04H269.773V51.048C269.773 49.4053 269.443 48.168 268.781 47.336C268.12 46.504 267.171 46.088 265.933 46.088C264.675 46.088 263.619 46.5893 262.765 47.592C261.933 48.5733 261.517 49.9813 261.517 51.816V60.04H258.829ZM293.726 60.424C292.233 60.424 290.889 60.0827 289.694 59.4C288.5 58.7173 287.55 57.7573 286.846 56.52C286.164 55.2613 285.822 53.7893 285.822 52.104C285.822 50.4187 286.174 48.9573 286.878 47.72C287.582 46.4613 288.532 45.4907 289.726 44.808C290.942 44.1253 292.297 43.784 293.79 43.784C295.284 43.784 296.628 44.1253 297.822 44.808C299.017 45.4907 299.956 46.4613 300.638 47.72C301.342 48.9573 301.694 50.4187 301.694 52.104C301.694 53.7893 301.342 55.2613 300.638 56.52C299.934 57.7573 298.974 58.7173 297.758 59.4C296.564 60.0827 295.22 60.424 293.726 60.424ZM293.726 58.12C294.644 58.12 295.497 57.896 296.286 57.448C297.076 57 297.716 56.328 298.206 55.432C298.697 54.536 298.942 53.4267 298.942 52.104C298.942 50.7813 298.697 49.672 298.206 48.776C297.737 47.88 297.108 47.208 296.318 46.76C295.529 46.312 294.686 46.088 293.79 46.088C292.873 46.088 292.02 46.312 291.23 46.76C290.441 47.208 289.801 47.88 289.31 48.776C288.82 49.672 288.574 50.7813 288.574 52.104C288.574 53.4267 288.82 54.536 289.31 55.432C289.801 56.328 290.43 57 291.198 57.448C291.988 57.896 292.83 58.12 293.726 58.12ZM311.672 60.424C310.093 60.424 308.706 60.0613 307.512 59.336C306.338 58.6107 305.421 57.6187 304.76 56.36C304.12 55.1013 303.8 53.672 303.8 52.072C303.8 50.472 304.13 49.0533 304.792 47.816C305.453 46.5573 306.37 45.576 307.544 44.872C308.717 44.1467 310.104 43.784 311.704 43.784C313.005 43.784 314.157 44.0507 315.16 44.584C316.162 45.1173 316.941 45.864 317.496 46.824V37H320.184V60.04H317.752L317.496 57.416C316.984 58.184 316.248 58.8773 315.288 59.496C314.328 60.1147 313.122 60.424 311.672 60.424ZM311.96 58.088C313.026 58.088 313.965 57.8427 314.776 57.352C315.608 56.84 316.248 56.136 316.696 55.24C317.165 54.344 317.4 53.2987 317.4 52.104C317.4 50.9093 317.165 49.864 316.696 48.968C316.248 48.072 315.608 47.3787 314.776 46.888C313.965 46.376 313.026 46.12 311.96 46.12C310.914 46.12 309.976 46.376 309.144 46.888C308.333 47.3787 307.693 48.072 307.224 48.968C306.776 49.864 306.552 50.9093 306.552 52.104C306.552 53.2987 306.776 54.344 307.224 55.24C307.693 56.136 308.333 56.84 309.144 57.352C309.976 57.8427 310.914 58.088 311.96 58.088ZM330.741 60.424C329.227 60.424 327.883 60.0827 326.709 59.4C325.536 58.696 324.608 57.7253 323.925 56.488C323.264 55.2507 322.933 53.7893 322.933 52.104C322.933 50.44 323.264 48.9893 323.925 47.752C324.587 46.4933 325.504 45.5227 326.677 44.84C327.872 44.136 329.248 43.784 330.805 43.784C332.341 43.784 333.664 44.136 334.773 44.84C335.904 45.5227 336.768 46.4293 337.365 47.56C337.963 48.6907 338.261 49.9067 338.261 51.208C338.261 51.4427 338.251 51.6773 338.229 51.912C338.229 52.1467 338.229 52.4133 338.229 52.712H325.589C325.653 53.928 325.931 54.9413 326.421 55.752C326.933 56.5413 327.563 57.1387 328.309 57.544C329.077 57.9493 329.888 58.152 330.741 58.152C331.851 58.152 332.779 57.896 333.525 57.384C334.272 56.872 334.816 56.1787 335.157 55.304H337.813C337.387 56.776 336.565 58.0027 335.349 58.984C334.155 59.944 332.619 60.424 330.741 60.424ZM330.741 46.056C329.461 46.056 328.32 46.4507 327.317 47.24C326.336 48.008 325.771 49.1387 325.621 50.632H335.605C335.541 49.2027 335.051 48.0827 334.133 47.272C333.216 46.4613 332.085 46.056 330.741 46.056ZM340.864 60.04V37H343.552V60.04H340.864ZM348.63 40.648C348.097 40.648 347.649 40.4773 347.286 40.136C346.945 39.7733 346.774 39.3253 346.774 38.792C346.774 38.28 346.945 37.8533 347.286 37.512C347.649 37.1707 348.097 37 348.63 37C349.142 37 349.579 37.1707 349.942 37.512C350.305 37.8533 350.486 38.28 350.486 38.792C350.486 39.3253 350.305 39.7733 349.942 40.136C349.579 40.4773 349.142 40.648 348.63 40.648ZM347.286 60.04V44.168H349.974V60.04H347.286ZM353.694 60.04V44.168H356.126L356.286 47.016C356.798 46.0133 357.534 45.224 358.494 44.648C359.454 44.072 360.542 43.784 361.758 43.784C363.636 43.784 365.129 44.36 366.238 45.512C367.369 46.6427 367.934 48.392 367.934 50.76V60.04H365.246V51.048C365.246 47.7413 363.881 46.088 361.15 46.088C359.785 46.088 358.644 46.5893 357.726 47.592C356.83 48.5733 356.382 49.9813 356.382 51.816V60.04H353.694ZM377.319 55.048C376.423 55.048 375.601 54.9307 374.855 54.696L373.255 56.2C373.489 56.3707 373.777 56.52 374.119 56.648C374.481 56.7547 374.993 56.8613 375.655 56.968C376.316 57.0533 377.244 57.1493 378.439 57.256C380.572 57.4053 382.097 57.896 383.015 58.728C383.932 59.56 384.391 60.648 384.391 61.992C384.391 62.9093 384.135 63.784 383.623 64.616C383.132 65.448 382.364 66.1307 381.319 66.664C380.295 67.1973 378.972 67.464 377.351 67.464C375.921 67.464 374.652 67.272 373.543 66.888C372.433 66.5253 371.569 65.96 370.951 65.192C370.332 64.4453 370.023 63.496 370.023 62.344C370.023 61.7467 370.183 61.096 370.503 60.392C370.823 59.7093 371.42 59.0587 372.295 58.44C371.825 58.248 371.42 58.0453 371.079 57.832C370.759 57.5973 370.46 57.3413 370.183 57.064V56.328L372.903 53.64C371.644 52.5733 371.015 51.1653 371.015 49.416C371.015 48.3707 371.26 47.4213 371.751 46.568C372.241 45.7147 372.956 45.0427 373.895 44.552C374.833 44.04 375.975 43.784 377.319 43.784C378.236 43.784 379.068 43.912 379.815 44.168H385.671V46.184L382.695 46.312C383.313 47.208 383.623 48.2427 383.623 49.416C383.623 50.4613 383.367 51.4107 382.855 52.264C382.364 53.1173 381.649 53.8 380.711 54.312C379.793 54.8027 378.663 55.048 377.319 55.048ZM377.319 52.84C378.449 52.84 379.345 52.552 380.007 51.976C380.689 51.3787 381.031 50.5253 381.031 49.416C381.031 48.328 380.689 47.496 380.007 46.92C379.345 46.3227 378.449 46.024 377.319 46.024C376.167 46.024 375.249 46.3227 374.567 46.92C373.905 47.496 373.575 48.328 373.575 49.416C373.575 50.5253 373.905 51.3787 374.567 51.976C375.249 52.552 376.167 52.84 377.319 52.84ZM372.647 62.088C372.647 63.1547 373.095 63.944 373.991 64.456C374.887 64.9893 376.007 65.256 377.351 65.256C378.673 65.256 379.729 64.968 380.519 64.392C381.329 63.816 381.735 63.048 381.735 62.088C381.735 61.4053 381.457 60.808 380.903 60.296C380.348 59.8053 379.324 59.5173 377.831 59.432C376.657 59.3467 375.644 59.24 374.791 59.112C373.916 59.5813 373.34 60.0827 373.063 60.616C372.785 61.1707 372.647 61.6613 372.647 62.088ZM402.036 60.424C400.5 60.424 399.145 60.1467 397.972 59.592C396.82 59.016 395.913 58.2267 395.252 57.224C394.612 56.2 394.292 54.9947 394.292 53.608C394.292 52.0933 394.729 50.7493 395.604 49.576C396.5 48.3813 397.79 47.4427 399.476 46.76C398.75 45.9707 398.228 45.224 397.908 44.52C397.588 43.7947 397.428 43.016 397.428 42.184C397.428 40.7547 397.929 39.5813 398.932 38.664C399.956 37.7253 401.353 37.256 403.124 37.256C404.276 37.256 405.278 37.48 406.132 37.928C406.985 38.3547 407.646 38.952 408.116 39.72C408.585 40.488 408.798 41.3627 408.756 42.344H406.1C406.121 41.384 405.822 40.6587 405.204 40.168C404.606 39.6773 403.913 39.432 403.124 39.432C402.164 39.432 401.417 39.688 400.884 40.2C400.35 40.712 400.084 41.3627 400.084 42.152C400.084 42.8347 400.265 43.496 400.628 44.136C401.012 44.776 401.577 45.4907 402.324 46.28L409.396 53.416C410.014 52.52 410.686 51.4427 411.412 50.184L412.404 48.456H415.252L413.844 50.952C412.905 52.6373 412.009 54.0453 411.156 55.176L415.988 60.04H412.596L409.62 57.032C408.489 58.248 407.316 59.1227 406.1 59.656C404.884 60.168 403.529 60.424 402.036 60.424ZM396.98 53.512C396.98 54.8347 397.449 55.9333 398.388 56.808C399.326 57.6827 400.553 58.12 402.068 58.12C403.198 58.12 404.222 57.9067 405.14 57.48C406.078 57.032 406.996 56.3067 407.892 55.304L401.108 48.424C399.7 48.9787 398.654 49.6827 397.972 50.536C397.31 51.3893 396.98 52.3813 396.98 53.512ZM431.51 60.04C430.059 60.04 428.918 59.688 428.086 58.984C427.254 58.28 426.838 57.0107 426.838 55.176V46.44H424.086V44.168H426.838L427.19 40.36H429.526V44.168H434.198V46.44H429.526V55.176C429.526 56.1787 429.729 56.8613 430.134 57.224C430.539 57.5653 431.254 57.736 432.278 57.736H433.942V60.04H431.51ZM443.351 60.424C441.837 60.424 440.493 60.0827 439.319 59.4C438.146 58.696 437.218 57.7253 436.535 56.488C435.874 55.2507 435.543 53.7893 435.543 52.104C435.543 50.44 435.874 48.9893 436.535 47.752C437.197 46.4933 438.114 45.5227 439.287 44.84C440.482 44.136 441.858 43.784 443.415 43.784C444.951 43.784 446.274 44.136 447.383 44.84C448.514 45.5227 449.378 46.4293 449.975 47.56C450.573 48.6907 450.871 49.9067 450.871 51.208C450.871 51.4427 450.861 51.6773 450.839 51.912C450.839 52.1467 450.839 52.4133 450.839 52.712H438.199C438.263 53.928 438.541 54.9413 439.031 55.752C439.543 56.5413 440.173 57.1387 440.919 57.544C441.687 57.9493 442.498 58.152 443.351 58.152C444.461 58.152 445.389 57.896 446.135 57.384C446.882 56.872 447.426 56.1787 447.767 55.304H450.423C449.997 56.776 449.175 58.0027 447.959 58.984C446.765 59.944 445.229 60.424 443.351 60.424ZM443.351 46.056C442.071 46.056 440.93 46.4507 439.927 47.24C438.946 48.008 438.381 49.1387 438.231 50.632H448.215C448.151 49.2027 447.661 48.0827 446.743 47.272C445.826 46.4613 444.695 46.056 443.351 46.056ZM451.124 60.04L456.628 52.104L451.124 44.168H454.036L458.484 50.728L462.964 44.168H465.844L460.34 52.104L465.844 60.04H462.964L458.484 53.48L454.036 60.04H451.124ZM473.974 60.04C472.523 60.04 471.382 59.688 470.55 58.984C469.718 58.28 469.302 57.0107 469.302 55.176V46.44H466.55V44.168H469.302L469.654 40.36H471.99V44.168H476.662V46.44H471.99V55.176C471.99 56.1787 472.192 56.8613 472.598 57.224C473.003 57.5653 473.718 57.736 474.742 57.736H476.406V60.04H473.974ZM493.005 44.168V60.04H490.573L490.413 57.192C489.901 58.1947 489.165 58.984 488.205 59.56C487.245 60.136 486.157 60.424 484.941 60.424C483.063 60.424 481.559 59.8587 480.429 58.728C479.319 57.576 478.765 55.816 478.765 53.448V44.168H481.453V53.16C481.453 56.4667 482.818 58.12 485.549 58.12C486.914 58.12 488.045 57.6293 488.941 56.648C489.858 55.6453 490.317 54.2267 490.317 52.392V44.168H493.005ZM496.469 60.04V44.168H498.901L499.125 47.208C499.616 46.1627 500.363 45.3307 501.365 44.712C502.368 44.0933 503.605 43.784 505.077 43.784V46.6H504.341C503.403 46.6 502.539 46.7707 501.749 47.112C500.96 47.432 500.331 47.9867 499.861 48.776C499.392 49.5653 499.157 50.6533 499.157 52.04V60.04H496.469ZM508.766 40.648C508.233 40.648 507.785 40.4773 507.422 40.136C507.081 39.7733 506.91 39.3253 506.91 38.792C506.91 38.28 507.081 37.8533 507.422 37.512C507.785 37.1707 508.233 37 508.766 37C509.278 37 509.716 37.1707 510.078 37.512C510.441 37.8533 510.622 38.28 510.622 38.792C510.622 39.3253 510.441 39.7733 510.078 40.136C509.716 40.4773 509.278 40.648 508.766 40.648ZM507.422 60.04V44.168H510.11V60.04H507.422ZM513.83 60.04V44.168H516.262L516.422 47.016C516.934 46.0133 517.67 45.224 518.63 44.648C519.59 44.072 520.678 43.784 521.894 43.784C523.772 43.784 525.265 44.36 526.374 45.512C527.505 46.6427 528.07 48.392 528.07 50.76V60.04H525.382V51.048C525.382 47.7413 524.017 46.088 521.286 46.088C519.921 46.088 518.78 46.5893 517.862 47.592C516.966 48.5733 516.518 49.9813 516.518 51.816V60.04H513.83ZM537.455 55.048C536.559 55.048 535.738 54.9307 534.991 54.696L533.391 56.2C533.626 56.3707 533.914 56.52 534.255 56.648C534.618 56.7547 535.13 56.8613 535.791 56.968C536.452 57.0533 537.38 57.1493 538.575 57.256C540.708 57.4053 542.234 57.896 543.151 58.728C544.068 59.56 544.527 60.648 544.527 61.992C544.527 62.9093 544.271 63.784 543.759 64.616C543.268 65.448 542.5 66.1307 541.455 66.664C540.431 67.1973 539.108 67.464 537.487 67.464C536.058 67.464 534.788 67.272 533.679 66.888C532.57 66.5253 531.706 65.96 531.087 65.192C530.468 64.4453 530.159 63.496 530.159 62.344C530.159 61.7467 530.319 61.096 530.639 60.392C530.959 59.7093 531.556 59.0587 532.431 58.44C531.962 58.248 531.556 58.0453 531.215 57.832C530.895 57.5973 530.596 57.3413 530.319 57.064V56.328L533.039 53.64C531.78 52.5733 531.151 51.1653 531.151 49.416C531.151 48.3707 531.396 47.4213 531.887 46.568C532.378 45.7147 533.092 45.0427 534.031 44.552C534.97 44.04 536.111 43.784 537.455 43.784C538.372 43.784 539.204 43.912 539.951 44.168H545.807V46.184L542.831 46.312C543.45 47.208 543.759 48.2427 543.759 49.416C543.759 50.4613 543.503 51.4107 542.991 52.264C542.5 53.1173 541.786 53.8 540.847 54.312C539.93 54.8027 538.799 55.048 537.455 55.048ZM537.455 52.84C538.586 52.84 539.482 52.552 540.143 51.976C540.826 51.3787 541.167 50.5253 541.167 49.416C541.167 48.328 540.826 47.496 540.143 46.92C539.482 46.3227 538.586 46.024 537.455 46.024C536.303 46.024 535.386 46.3227 534.703 46.92C534.042 47.496 533.711 48.328 533.711 49.416C533.711 50.5253 534.042 51.3787 534.703 51.976C535.386 52.552 536.303 52.84 537.455 52.84ZM532.783 62.088C532.783 63.1547 533.231 63.944 534.127 64.456C535.023 64.9893 536.143 65.256 537.487 65.256C538.81 65.256 539.866 64.968 540.655 64.392C541.466 63.816 541.871 63.048 541.871 62.088C541.871 61.4053 541.594 60.808 541.039 60.296C540.484 59.8053 539.46 59.5173 537.967 59.432C536.794 59.3467 535.78 59.24 534.927 59.112C534.052 59.5813 533.476 60.0827 533.199 60.616C532.922 61.1707 532.783 61.6613 532.783 62.088ZM548.807 60.2C548.274 60.2 547.826 60.0293 547.463 59.688C547.122 59.3253 546.951 58.888 546.951 58.376C546.951 57.864 547.122 57.4373 547.463 57.096C547.826 56.7333 548.274 56.552 548.807 56.552C549.319 56.552 549.746 56.7333 550.087 57.096C550.45 57.4373 550.631 57.864 550.631 58.376C550.631 58.888 550.45 59.3253 550.087 59.688C549.746 60.0293 549.319 60.2 548.807 60.2Z" fill="#606060"/>
</svg>
